<svg width="11" height="12" viewBox="0 0 11 12" fill="none" xmlns="http://www.w3.org/2000/svg">
<path d="M9.91672 3.51396L6.41672 0.445627C6.09587 0.158653 5.68051 0 5.25005 0C4.81959 0 4.40423 0.158653 4.08339 0.445627L0.583389 3.51396C0.398103 3.67967 0.250247 3.88295 0.149664 4.11027C0.0490808 4.33759 -0.00192066 4.58372 5.52966e-05 4.83229V9.93063C5.52966e-05 10.3948 0.18443 10.8399 0.512618 11.1681C0.840807 11.4963 1.28593 11.6806 1.75006 11.6806H8.75005C9.21418 11.6806 9.6593 11.4963 9.98749 11.1681C10.3157 10.8399 10.5001 10.3948 10.5001 9.93063V4.82646C10.5012 4.57887 10.4498 4.33386 10.3492 4.10761C10.2487 3.88136 10.1013 3.67902 9.91672 3.51396ZM6.41672 10.514H4.08339V7.59729C4.08339 7.44258 4.14485 7.29421 4.25424 7.18481C4.36364 7.07542 4.51201 7.01396 4.66672 7.01396H5.83339C5.9881 7.01396 6.13647 7.07542 6.24587 7.18481C6.35526 7.29421 6.41672 7.44258 6.41672 7.59729V10.514ZM9.33339 9.93063C9.33339 10.0853 9.27193 10.2337 9.16253 10.3431C9.05314 10.4525 8.90476 10.514 8.75005 10.514H7.58339V7.59729C7.58339 7.13316 7.39901 6.68804 7.07082 6.35986C6.74264 6.03167 6.29752 5.84729 5.83339 5.84729H4.66672C4.20259 5.84729 3.75747 6.03167 3.42928 6.35986C3.1011 6.68804 2.91672 7.13316 2.91672 7.59729V10.514H1.75006C1.59535 10.514 1.44697 10.4525 1.33758 10.3431C1.22818 10.2337 1.16672 10.0853 1.16672 9.93063V4.82646C1.16683 4.74364 1.18457 4.66178 1.21877 4.58635C1.25296 4.51091 1.30283 4.44362 1.36506 4.38896L4.86505 1.32646C4.97151 1.23294 5.10836 1.18137 5.25005 1.18137C5.39175 1.18137 5.5286 1.23294 5.63505 1.32646L9.13505 4.38896C9.19728 4.44362 9.24715 4.51091 9.28134 4.58635C9.31554 4.66178 9.33328 4.74364 9.33339 4.82646V9.93063Z" fill="#A30000"/>
</svg>
