<svg width="13" height="10" viewBox="0 0 13 10" fill="none" xmlns="http://www.w3.org/2000/svg">
<path d="M11.9507 3.2725L11.3674 2.95167L6.11739 0.035H6.05322C6.01746 0.0198792 5.98035 0.00816086 5.94239 0H5.83155H5.72655C5.6867 0.00816623 5.64766 0.0198795 5.60989 0.035H5.54572L0.29572 2.95167C0.205946 3.00254 0.131275 3.07632 0.0793232 3.16548C0.0273718 3.25464 0 3.35598 0 3.45917C0 3.56236 0.0273718 3.6637 0.0793232 3.75285C0.131275 3.84201 0.205946 3.91579 0.29572 3.96667L1.74822 4.77167V7.53667C1.74822 8.0008 1.93259 8.44592 2.26078 8.7741C2.58897 9.10229 3.03409 9.28667 3.49822 9.28667H8.16489C8.62902 9.28667 9.07414 9.10229 9.40232 8.7741C9.73051 8.44592 9.91489 8.0008 9.91489 7.53667V4.77167L11.0816 4.11833V5.78667C11.0816 5.94138 11.143 6.08975 11.2524 6.19915C11.3618 6.30854 11.5102 6.37 11.6649 6.37C11.8196 6.37 11.968 6.30854 12.0774 6.19915C12.1868 6.08975 12.2482 5.94138 12.2482 5.78667V3.78C12.248 3.67664 12.2204 3.57517 12.1681 3.486C12.1159 3.39683 12.0408 3.32315 11.9507 3.2725ZM8.74822 7.53667C8.74822 7.69138 8.68676 7.83975 8.57737 7.94915C8.46797 8.05854 8.3196 8.12 8.16489 8.12H3.49822C3.34351 8.12 3.19514 8.05854 3.08574 7.94915C2.97635 7.83975 2.91489 7.69138 2.91489 7.53667V5.41917L5.54572 6.8775L5.63322 6.9125H5.68572C5.73414 6.9186 5.78313 6.9186 5.83155 6.9125C5.87997 6.9186 5.92897 6.9186 5.97739 6.9125H6.02989C6.06086 6.90597 6.09046 6.89413 6.11739 6.8775L8.74822 5.41917V7.53667ZM5.83155 5.705L1.78322 3.45333L5.83155 1.20167L9.87989 3.45333L5.83155 5.705Z" fill="#0055A3"/>
</svg>
