<svg width="14" height="12" viewBox="0 0 14 12" fill="none" xmlns="http://www.w3.org/2000/svg">
<path d="M4.81225 0C4.09272 0 3.49725 0.595493 3.49725 1.315V1.75076H1.31158C0.591802 1.75076 0 2.34514 0 3.0649V3.93986C0 4.4368 0.281042 4.89068 0.723717 5.11216C0.773047 5.13684 0.822207 5.16182 0.871537 5.1865V10.0628C0.871537 10.7823 1.46702 11.3778 2.18653 11.3778H10.9344C11.6539 11.3778 12.2494 10.7823 12.2494 10.0628V5.1865C12.2989 5.16171 12.3485 5.13695 12.398 5.11216C12.8408 4.89071 13.1209 4.4368 13.1209 3.93986V3.0649C13.1209 2.34514 12.53 1.75076 11.8102 1.75076H9.62364V1.315C9.62364 0.595493 9.02903 0 8.3095 0H4.81225ZM4.81225 0.874954H8.3095C8.55945 0.874954 8.74869 1.06506 8.74869 1.315V1.75076H4.37221V1.315C4.37221 1.06506 4.56231 0.874954 4.81225 0.874954ZM1.31158 2.62572H11.8102C12.0572 2.62572 12.2494 2.81793 12.2494 3.0649V3.93986C12.2494 4.1053 12.1538 4.25634 12.0041 4.3312C10.2549 5.20634 8.50531 6.08049 6.75612 6.95606C6.6318 7.01823 6.4891 7.01823 6.36478 6.95606C4.61559 6.08049 2.86683 5.20634 1.11762 4.3312C0.96792 4.25629 0.871537 4.1053 0.871537 3.93986V3.0649C0.871537 2.81793 1.0646 2.62572 1.31158 2.62572ZM6.56045 5.25144C6.31884 5.25144 6.12298 5.44729 6.12297 5.68891C6.12297 5.93052 6.31883 6.12639 6.56045 6.12639C6.80207 6.12639 6.99793 5.93052 6.99793 5.68891C6.99792 5.44729 6.80206 5.25144 6.56045 5.25144ZM1.74735 5.62397C3.15549 6.32838 4.56304 7.03317 5.97088 7.73788C6.34073 7.92302 6.78017 7.92302 7.15002 7.73788C8.55791 7.03314 9.96622 6.3284 11.3744 5.62397V10.0628C11.3744 10.3127 11.1843 10.502 10.9344 10.502H2.18653C1.93662 10.502 1.74735 10.3127 1.74735 10.0628V5.62397Z" fill="#A36200"/>
</svg>
