<svg width="90" height="90" viewBox="0 0 90 90" fill="none" xmlns="http://www.w3.org/2000/svg">
<circle cx="45" cy="45" r="45" fill="white"/>
<path d="M58.625 66.5C58.625 62.1508 52.7487 58.625 45.5 58.625C38.2513 58.625 32.375 62.1508 32.375 66.5M69.125 58.626C69.125 55.3967 65.8855 52.6215 61.25 51.4062M21.875 58.626C21.875 55.3967 25.1145 52.6215 29.75 51.4062M61.25 40.8698C62.8611 39.4278 63.875 37.3323 63.875 35C63.875 30.6508 60.3492 27.125 56 27.125C53.9831 27.125 52.1432 27.8832 50.75 29.1302M29.75 40.8698C28.1389 39.4278 27.125 37.3323 27.125 35C27.125 30.6508 30.6508 27.125 35 27.125C37.0169 27.125 38.8568 27.8832 40.25 29.1302M45.5 50.75C41.1508 50.75 37.625 47.2242 37.625 42.875C37.625 38.5258 41.1508 35 45.5 35C49.8492 35 53.375 38.5258 53.375 42.875C53.375 47.2242 49.8492 50.75 45.5 50.75Z" stroke="#FF7474" stroke-width="6" stroke-linecap="round" stroke-linejoin="round"/>
</svg>
