<svg width="18" height="18" viewBox="0 0 18 18" fill="none" xmlns="http://www.w3.org/2000/svg">
<path d="M10 16.9991C9.90511 17 9.79863 17 9.67703 17H4.19691C3.07899 17 2.5192 17 2.0918 16.7822C1.71547 16.5905 1.40973 16.2842 1.21799 15.9079C1 15.4801 1 14.9203 1 13.8002V4.2002C1 3.08009 1 2.51962 1.21799 2.0918C1.40973 1.71547 1.71547 1.40973 2.0918 1.21799C2.51962 1 3.08009 1 4.2002 1H13.8002C14.9203 1 15.4796 1 15.9074 1.21799C16.2837 1.40973 16.5905 1.71547 16.7822 2.0918C17 2.5192 17 3.07899 17 4.19691V9.67471C17 9.79731 17 9.90453 16.9991 10M10 16.9991C10.2857 16.9966 10.4663 16.9862 10.6388 16.9448C10.8429 16.8958 11.0379 16.8147 11.2168 16.705C11.4186 16.5814 11.5916 16.4089 11.9375 16.063L16.063 11.9375C16.4089 11.5916 16.5809 11.4186 16.7046 11.2168C16.8142 11.0379 16.8953 10.8424 16.9443 10.6384C16.9857 10.4659 16.9964 10.2855 16.9991 10M10 16.9991V11.6001C10 11.04 10 10.7598 10.109 10.5459C10.2049 10.3577 10.3577 10.2049 10.5459 10.109C10.7598 10 11.0396 10 11.5996 10H16.9991" stroke="#FF7474" stroke-width="2" stroke-linecap="round" stroke-linejoin="round"/>
</svg>
